<?xml version="1.0" standalone="no"?>
<!DOCTYPE svg PUBLIC "-//W3C//DTD SVG 20010904//EN"
 "http://www.w3.org/TR/2001/REC-SVG-20010904/DTD/svg10.dtd">
<svg version="1.0" xmlns="http://www.w3.org/2000/svg"
 width="500.000000pt" height="500.000000pt" viewBox="0 0 500.000000 500.000000"
 preserveAspectRatio="xMidYMid meet">

<g transform="translate(0.000000,500.000000) scale(0.100000,-0.100000)"
fill="#000000" stroke="none">
<path d="M2503 4296 c-40 -18 -63 -62 -63 -122 0 -41 5 -51 36 -80 31 -30 42
-34 88 -34 29 0 61 6 72 14 27 20 10 31 -26 16 -57 -24 -140 15 -140 65 0 21
3 22 106 17 l105 -5 -6 39 c-14 80 -98 123 -172 90z m115 -33 c12 -10 24 -30
28 -45 7 -32 6 -32 -108 -21 -76 7 -84 18 -43 58 30 30 92 34 123 8z"/>
<path d="M2230 4293 c-8 -3 -27 -16 -41 -30 -26 -24 -26 -24 -32 -4 -3 12 -10
21 -17 21 -12 0 -8 -71 10 -175 5 -27 12 -76 15 -107 5 -41 11 -58 21 -58 12
0 13 12 8 65 -5 44 -3 65 4 65 6 0 14 -4 17 -10 3 -5 29 -10 57 -10 44 0 54 4
84 34 29 29 34 41 34 81 0 54 -21 95 -60 119 -28 16 -70 20 -100 9z m104 -49
c35 -36 37 -110 4 -142 -94 -86 -224 40 -142 137 35 42 98 44 138 5z"/>
<path d="M2761 4233 c-5 -27 -15 -75 -22 -108 -6 -33 -14 -65 -16 -72 -3 -7 2
-13 11 -13 19 0 19 2 37 90 15 75 43 110 89 110 16 0 30 5 30 10 0 19 -27 21
-64 6 -34 -14 -36 -14 -36 5 0 37 -18 19 -29 -28z"/>
<path d="M1659 4208 c23 -57 131 -282 140 -291 24 -24 22 6 -4 64 -80 179
-117 249 -130 249 -11 0 -12 -5 -6 -22z"/>
<path d="M1904 4216 c-46 -21 -74 -62 -74 -109 0 -120 139 -174 222 -85 22 24
28 39 28 77 0 94 -92 155 -176 117z m117 -45 c38 -39 41 -106 6 -139 -31 -29
-81 -38 -113 -21 -66 35 -73 154 -11 179 45 18 87 11 118 -19z"/>
<path d="M3345 4120 c-41 -13 -73 -44 -96 -94 -32 -71 -19 -135 37 -188 34
-32 109 -61 136 -52 30 9 20 21 -24 27 -48 6 -84 30 -115 77 -28 40 -29 84 -4
130 54 102 185 105 250 6 32 -48 52 -32 22 18 -40 65 -132 99 -206 76z"/>
<path d="M1501 4024 c-42 -35 -57 -88 -38 -134 9 -19 27 -46 42 -60 53 -50
170 -22 196 48 15 39 3 37 -39 -7 -31 -33 -46 -41 -74 -41 -20 0 -46 8 -59 19
l-24 19 25 21 c14 11 28 20 33 21 12 0 117 72 117 81 0 4 -14 19 -31 33 -42
36 -106 36 -148 0z m126 -15 c7 -6 13 -15 13 -19 0 -12 -143 -100 -152 -94
-14 9 -9 64 9 90 9 14 26 30 37 35 25 10 73 4 93 -12z"/>
<path d="M2996 3995 c-3 -9 1 -18 10 -22 19 -7 39 11 30 26 -10 16 -33 13 -40
-4z"/>
<path d="M1363 3904 c3 -16 17 -67 31 -113 14 -47 24 -86 22 -88 -2 -2 -45 17
-97 42 -90 43 -129 54 -129 37 0 -12 233 -119 248 -114 6 2 12 12 12 21 -1 33
-68 235 -80 239 -9 3 -11 -4 -7 -24z"/>
<path d="M3549 3854 c-38 -24 -59 -66 -59 -114 0 -36 6 -48 39 -81 32 -32 46
-39 77 -39 51 0 83 18 112 60 33 48 26 110 -16 153 -38 37 -112 48 -153 21z
m106 -20 c20 -9 40 -30 50 -50 15 -33 15 -37 -2 -72 -11 -22 -33 -45 -55 -57
-35 -18 -38 -19 -72 -3 -40 20 -70 69 -62 102 11 44 62 93 99 95 5 1 24 -6 42
-15z"/>
<path d="M1114 3684 c-113 -56 -62 -234 68 -234 52 0 132 79 126 123 -5 31
-19 23 -33 -18 -18 -50 -50 -74 -98 -75 -53 0 -58 22 -15 68 39 41 88 105 88
115 0 11 -58 37 -82 37 -13 0 -37 -7 -54 -16z m95 -23 c11 -7 2 -23 -40 -74
-64 -78 -83 -81 -87 -14 -3 39 1 51 22 72 26 26 77 34 105 16z"/>
<path d="M3755 3616 c-84 -60 -111 -86 -85 -86 6 0 39 18 72 40 77 50 126 54
157 14 44 -56 29 -84 -82 -161 -45 -31 -60 -53 -36 -53 6 0 38 19 71 42 74 52
118 56 154 14 45 -52 31 -86 -61 -146 -36 -23 -65 -49 -65 -56 0 -21 8 -18 82
31 75 51 98 78 98 115 0 48 -57 109 -102 110 -13 0 -16 7 -11 34 7 44 -19 88
-65 110 -26 13 -32 20 -23 29 6 6 11 15 11 19 0 18 -29 3 -115 -56z"/>
<path d="M868 3462 c-14 -9 -35 -29 -46 -42 -26 -35 -87 -148 -82 -153 3 -2
41 -23 85 -47 44 -23 108 -58 141 -76 l62 -34 43 82 c35 68 43 92 42 135 0 59
-32 112 -83 138 -40 21 -128 19 -162 -3z m142 -24 c86 -44 99 -121 40 -230
l-31 -57 -57 31 c-146 78 -182 100 -182 108 0 19 71 128 93 143 48 31 82 33
137 5z"/>
<path d="M3995 3179 c-178 -67 -180 -68 -168 -80 7 -7 28 -3 64 10 68 26 71
26 58 -3 -25 -55 23 -144 86 -160 40 -10 101 11 129 45 47 56 30 150 -33 184
-23 12 -24 14 -8 20 16 7 25 36 10 34 -5 0 -66 -23 -138 -50z m133 -34 c76
-64 32 -170 -71 -170 -93 0 -123 134 -39 179 40 22 77 19 110 -9z"/>
<path d="M749 2965 c-45 -24 -62 -106 -35 -166 7 -15 2 -15 -51 -3 -73 17 -83
17 -83 0 0 -8 22 -18 58 -26 31 -6 89 -19 127 -27 131 -28 155 -31 155 -17 0
6 -7 15 -17 18 -14 6 -12 11 11 35 54 56 41 152 -24 186 -36 19 -107 19 -141
0z m116 -19 c39 -17 55 -42 55 -89 0 -97 -126 -128 -184 -45 -30 42 -13 108
35 134 31 17 52 17 94 0z"/>
<path d="M4180 2900 c-19 -5 -52 -12 -74 -15 -56 -9 -86 -44 -86 -99 0 -33 6
-52 25 -75 24 -28 24 -30 8 -40 -35 -19 -4 -21 94 -6 118 17 133 22 133 42 0
10 -6 13 -17 8 -37 -14 -143 -25 -166 -16 -44 17 -66 66 -47 111 13 32 38 44
133 60 45 8 67 17 67 26 0 15 -17 16 -70 4z"/>
<path d="M713 2650 c-41 -25 -53 -48 -53 -104 0 -36 6 -52 28 -77 24 -27 38
-33 83 -37 49 -4 59 -1 87 23 42 36 59 92 43 145 -7 25 -18 40 -27 40 -12 0
-14 -5 -8 -17 4 -10 9 -39 12 -64 3 -41 1 -48 -28 -72 -55 -47 -60 -40 -60 78
0 102 -1 105 -22 105 -13 0 -37 -9 -55 -20z m57 -100 c0 -75 -3 -90 -16 -90
-28 0 -74 56 -74 90 0 34 46 90 74 90 13 0 16 -15 16 -90z"/>
<path d="M4268 2588 c-3 -22 -9 -23 -100 -28 -53 -3 -102 -10 -108 -16 -14
-14 -9 -94 5 -95 6 -1 9 12 7 27 -1 16 1 34 5 40 5 6 50 14 101 18 l92 8 0
-41 c0 -51 18 -54 22 -4 2 29 8 38 26 43 29 6 29 25 -1 25 -15 0 -23 7 -25 23
-4 29 -20 29 -24 0z"/>
<path d="M4102 2394 c-59 -26 -92 -119 -62 -175 18 -34 27 -21 22 35 -5 63 7
90 49 112 47 24 54 9 39 -78 -17 -103 -13 -124 25 -121 66 5 105 49 105 121 0
47 -29 88 -76 108 -41 17 -59 17 -102 -2z m113 -30 c26 -10 48 -62 41 -99 -7
-38 -30 -61 -69 -70 l-27 -7 5 58 c13 128 14 131 50 118z"/>
<path d="M655 2363 c10 -10 77 -25 162 -38 24 -4 45 -10 48 -14 2 -5 -36 -32
-85 -61 -101 -60 -115 -85 -52 -93 77 -10 172 -30 172 -36 0 -4 -40 -31 -90
-60 -49 -29 -90 -60 -90 -68 0 -12 8 -10 38 7 20 12 72 43 115 68 42 24 77 48
77 53 0 14 -32 26 -105 39 -38 7 -81 16 -95 20 -24 7 -23 8 23 36 157 95 150
89 132 107 -9 10 -29 17 -45 17 -16 0 -39 4 -52 9 -36 14 -165 25 -153 14z"/>
<path d="M4000 2110 c0 -5 19 -14 43 -20 121 -31 147 -50 147 -110 0 -21 4
-30 13 -28 16 6 22 47 8 61 -17 17 -13 38 5 35 10 -2 19 2 21 8 2 6 -39 22
-96 37 -106 29 -141 33 -141 17z"/>
<path d="M972 1928 c2 -12 10 -23 18 -23 22 0 19 39 -3 43 -15 3 -18 -1 -15
-20z"/>
<path d="M3906 1819 c-52 -56 -69 -114 -50 -164 7 -18 55 -45 79 -45 10 0 47
29 84 65 71 68 97 78 124 47 31 -34 19 -81 -35 -138 -22 -23 -26 -34 -17 -39
18 -12 75 55 90 104 20 67 -17 121 -82 121 -11 0 -51 -29 -89 -65 -38 -36 -74
-65 -80 -65 -14 0 -60 46 -60 60 0 26 45 102 71 121 31 22 38 39 15 39 -7 0
-30 -18 -50 -41z"/>
<path d="M1055 1761 c-2 -5 2 -14 10 -21 8 -7 15 -24 15 -39 0 -22 -12 -33
-71 -69 -38 -23 -73 -42 -77 -42 -4 0 -16 14 -26 30 -23 40 -41 29 -20 -12 16
-30 15 -32 -6 -48 -31 -23 -18 -43 16 -28 22 10 28 9 39 -5 15 -21 28 -10 15
14 -9 15 1 25 72 66 70 41 84 53 86 77 5 45 -36 104 -53 77z"/>
<path d="M1110 1550 c-80 -64 -89 -77 -90 -121 0 -26 8 -43 31 -67 17 -18 39
-32 49 -32 24 0 32 -11 18 -27 -7 -9 -8 -17 -1 -24 11 -11 192 128 193 149 0
21 -16 14 -81 -38 -76 -59 -107 -63 -150 -21 -54 55 -34 100 87 187 21 16 26
25 18 33 -8 9 -27 -2 -74 -39z"/>
<path d="M3739 1551 c-31 -31 -39 -46 -39 -75 0 -25 4 -36 15 -36 10 0 15 10
15 30 0 66 58 107 125 89 19 -6 43 -22 52 -36 36 -55 10 -138 -47 -150 -17 -3
-30 -12 -30 -20 0 -25 51 -6 88 32 25 27 32 43 32 75 0 81 -49 130 -131 130
-35 0 -48 -6 -80 -39z"/>
<path d="M3616 1412 c-3 -5 16 -29 42 -53 125 -117 132 -123 142 -113 8 8 -16
36 -78 92 -92 84 -97 88 -106 74z"/>
<path d="M1340 1342 c0 -4 16 -14 35 -21 50 -18 77 -56 73 -105 -2 -22 -8 -41
-13 -43 -6 -2 -44 26 -84 62 -81 71 -93 72 -110 9 -27 -99 67 -180 162 -140
96 40 101 182 8 231 -32 16 -71 20 -71 7z m14 -137 c50 -46 57 -57 46 -70 -7
-8 -29 -15 -49 -15 -61 0 -102 55 -87 115 4 14 12 25 19 25 6 -1 39 -25 71
-55z"/>
<path d="M3480 1284 c-27 -23 -60 -72 -60 -89 0 -3 7 -5 15 -5 8 0 15 7 15 16
0 8 13 29 29 45 24 23 38 29 74 29 78 0 77 -19 -5 -90 -40 -35 -75 -67 -76
-72 -7 -16 20 -38 59 -49 47 -15 88 0 125 44 23 27 25 38 21 81 -9 102 -121
153 -197 90z m170 -73 c17 -32 12 -57 -19 -90 -33 -35 -83 -42 -117 -16 -18
14 -18 15 16 42 19 16 48 40 65 55 36 33 41 34 55 9z"/>
<path d="M3847 1204 c-14 -15 -6 -34 14 -34 14 0 19 5 17 17 -3 18 -20 27 -31
17z"/>
<path d="M1480 1057 c-47 -78 -85 -146 -85 -151 0 -27 24 -10 53 39 32 54 52
69 52 41 0 -8 14 -28 31 -45 26 -27 38 -31 83 -31 46 0 56 4 84 33 79 81 30
212 -79 212 -31 0 -38 3 -36 19 5 48 -24 15 -103 -117z m183 62 c29 -13 47
-48 47 -90 0 -22 -10 -41 -35 -66 -31 -31 -40 -35 -72 -30 -70 12 -109 78 -79
136 29 56 83 75 139 50z"/>
<path d="M3330 1157 c0 -7 4 -17 9 -22 5 -6 23 -38 41 -72 30 -60 30 -64 15
-92 -17 -35 -43 -51 -79 -51 -43 0 -55 10 -97 86 -22 41 -44 74 -49 74 -22 0
-16 -21 27 -94 50 -87 84 -110 136 -95 34 10 74 44 82 70 5 15 9 16 25 7 36
-23 30 0 -27 100 -52 92 -83 125 -83 89z"/>
<path d="M1787 944 c-21 -58 -36 -113 -32 -121 8 -23 15 -11 42 65 29 84 62
116 111 108 72 -11 88 -55 53 -143 -29 -75 -34 -103 -18 -103 17 0 67 132 67
177 0 19 -10 43 -24 60 -22 25 -31 28 -85 28 -53 0 -60 2 -55 18 3 10 0 17 -8
17 -7 0 -29 -45 -51 -106z"/>
<path d="M2996 1010 c-33 -10 -76 -48 -76 -67 0 -19 9 -16 47 17 48 43 91 41
132 -5 42 -48 42 -95 1 -137 -28 -27 -36 -30 -76 -25 -44 5 -65 -5 -43 -19 7
-4 32 -7 55 -6 88 1 138 71 114 158 -19 68 -86 104 -154 84z"/>
<path d="M2080 950 c0 -5 10 -10 23 -10 41 0 61 -23 54 -61 -29 -153 -31 -156
-76 -141 -25 9 -31 8 -31 -2 0 -8 16 -17 35 -20 32 -6 34 -9 28 -36 -4 -23 -2
-30 10 -30 9 0 17 10 19 23 2 16 10 22 27 22 13 0 26 6 28 13 3 7 -4 12 -17
12 -21 0 -21 3 -15 53 3 28 11 67 17 85 14 45 3 81 -28 92 -33 13 -74 13 -74
0z"/>
<path d="M2712 933 c-33 -16 -50 -38 -39 -50 3 -3 18 4 33 16 50 39 144 22
157 -28 5 -22 -1 -25 -68 -35 -22 -4 -61 -12 -88 -18 -41 -10 -46 -15 -41 -32
3 -12 21 -36 40 -53 76 -73 194 -19 194 89 0 98 -97 156 -188 111z m165 -118
c6 -18 -37 -75 -64 -86 -47 -17 -113 12 -113 51 0 12 18 20 73 32 80 17 99 18
104 3z"/>
<path d="M2276 889 c-28 -33 -32 -59 -16 -89 10 -19 30 -30 125 -66 123 -48
51 -153 -75 -110 -25 9 -48 12 -53 7 -17 -17 38 -35 106 -36 63 0 71 2 93 28
50 58 19 114 -80 147 -35 11 -71 29 -81 40 -24 26 -12 68 23 81 34 13 108 4
140 -17 16 -11 27 -13 34 -6 7 7 0 17 -23 31 -25 16 -51 21 -101 21 -62 0 -68
-2 -92 -31z"/>
</g>
</svg>
